<svg id="visual" viewBox="0 0 900 1800" width="900" height="1800" xmlns="http://www.w3.org/2000/svg" xmlns:xlink="http://www.w3.org/1999/xlink" version="1.1"><path d="M0 235L45 235L45 271L90 271L90 271L135 271L135 343L180 343L180 307L225 307L225 235L270 235L270 289L315 289L315 343L360 343L360 361L405 361L405 271L450 271L450 253L495 253L495 325L540 325L540 253L585 253L585 271L630 271L630 271L675 271L675 343L720 343L720 253L765 253L765 343L810 343L810 343L855 343L855 235L900 235L900 271L900 0L900 0L855 0L855 0L810 0L810 0L765 0L765 0L720 0L720 0L675 0L675 0L630 0L630 0L585 0L585 0L540 0L540 0L495 0L495 0L450 0L450 0L405 0L405 0L360 0L360 0L315 0L315 0L270 0L270 0L225 0L225 0L180 0L180 0L135 0L135 0L90 0L90 0L45 0L45 0L0 0Z" fill="#f1faff"></path><path d="M0 433L45 433L45 451L90 451L90 469L135 469L135 541L180 541L180 487L225 487L225 415L270 415L270 469L315 469L315 559L360 559L360 541L405 541L405 433L450 433L450 451L495 451L495 541L540 541L540 415L585 415L585 469L630 469L630 451L675 451L675 523L720 523L720 451L765 451L765 541L810 541L810 541L855 541L855 415L900 415L900 451L900 269L900 233L855 233L855 341L810 341L810 341L765 341L765 251L720 251L720 341L675 341L675 269L630 269L630 269L585 269L585 251L540 251L540 323L495 323L495 251L450 251L450 269L405 269L405 359L360 359L360 341L315 341L315 287L270 287L270 233L225 233L225 305L180 305L180 341L135 341L135 269L90 269L90 269L45 269L45 233L0 233Z" fill="#eef3fc"></path><path d="M0 937L45 937L45 901L90 901L90 865L135 865L135 973L180 973L180 919L225 919L225 991L270 991L270 919L315 919L315 1027L360 1027L360 919L405 919L405 865L450 865L450 937L495 937L495 973L540 973L540 955L585 955L585 955L630 955L630 955L675 955L675 1009L720 1009L720 973L765 973L765 955L810 955L810 883L855 883L855 811L900 811L900 847L900 449L900 413L855 413L855 539L810 539L810 539L765 539L765 449L720 449L720 521L675 521L675 449L630 449L630 467L585 467L585 413L540 413L540 539L495 539L495 449L450 449L450 431L405 431L405 539L360 539L360 557L315 557L315 467L270 467L270 413L225 413L225 485L180 485L180 539L135 539L135 467L90 467L90 449L45 449L45 431L0 431Z" fill="#eeebf5"></path><path d="M0 1189L45 1189L45 1099L90 1099L90 1099L135 1099L135 1189L180 1189L180 1117L225 1117L225 1225L270 1225L270 1117L315 1117L315 1207L360 1207L360 1135L405 1135L405 1099L450 1099L450 1153L495 1153L495 1207L540 1207L540 1171L585 1171L585 1189L630 1189L630 1153L675 1153L675 1225L720 1225L720 1243L765 1243L765 1207L810 1207L810 1117L855 1117L855 991L900 991L900 1099L900 845L900 809L855 809L855 881L810 881L810 953L765 953L765 971L720 971L720 1007L675 1007L675 953L630 953L630 953L585 953L585 953L540 953L540 971L495 971L495 935L450 935L450 863L405 863L405 917L360 917L360 1025L315 1025L315 917L270 917L270 989L225 989L225 917L180 917L180 971L135 971L135 863L90 863L90 899L45 899L45 935L0 935Z" fill="#f0e3ec"></path><path d="M0 1387L45 1387L45 1297L90 1297L90 1243L135 1243L135 1369L180 1369L180 1315L225 1315L225 1369L270 1369L270 1297L315 1297L315 1387L360 1387L360 1279L405 1279L405 1243L450 1243L450 1351L495 1351L495 1369L540 1369L540 1333L585 1333L585 1333L630 1333L630 1351L675 1351L675 1387L720 1387L720 1387L765 1387L765 1351L810 1351L810 1279L855 1279L855 1189L900 1189L900 1261L900 1097L900 989L855 989L855 1115L810 1115L810 1205L765 1205L765 1241L720 1241L720 1223L675 1223L675 1151L630 1151L630 1187L585 1187L585 1169L540 1169L540 1205L495 1205L495 1151L450 1151L450 1097L405 1097L405 1133L360 1133L360 1205L315 1205L315 1115L270 1115L270 1223L225 1223L225 1115L180 1115L180 1187L135 1187L135 1097L90 1097L90 1097L45 1097L45 1187L0 1187Z" fill="#efdde0"></path><path d="M0 1801L45 1801L45 1801L90 1801L90 1801L135 1801L135 1801L180 1801L180 1801L225 1801L225 1801L270 1801L270 1801L315 1801L315 1801L360 1801L360 1801L405 1801L405 1801L450 1801L450 1801L495 1801L495 1801L540 1801L540 1801L585 1801L585 1801L630 1801L630 1801L675 1801L675 1801L720 1801L720 1801L765 1801L765 1801L810 1801L810 1801L855 1801L855 1801L900 1801L900 1801L900 1259L900 1187L855 1187L855 1277L810 1277L810 1349L765 1349L765 1385L720 1385L720 1385L675 1385L675 1349L630 1349L630 1331L585 1331L585 1331L540 1331L540 1367L495 1367L495 1349L450 1349L450 1241L405 1241L405 1277L360 1277L360 1385L315 1385L315 1295L270 1295L270 1367L225 1367L225 1313L180 1313L180 1367L135 1367L135 1241L90 1241L90 1295L45 1295L45 1385L0 1385Z" fill="#ebd7d3"></path></svg>